<?xml version="1.0" standalone="no"?>
<!DOCTYPE svg PUBLIC "-//W3C//DTD SVG 20010904//EN"
 "http://www.w3.org/TR/2001/REC-SVG-20010904/DTD/svg10.dtd">
<svg version="1.0" xmlns="http://www.w3.org/2000/svg"
 width="260.000000pt" height="260.000000pt" viewBox="0 0 260.000000 260.000000"
 preserveAspectRatio="xMidYMid meet">
<metadata>
Created by potrace 1.14, written by Peter Selinger 2001-2017
</metadata>
<g transform="translate(0.000000,260.000000) scale(0.100000,-0.100000)"
fill="#000000" stroke="none">
<path d="M0 1300 l0 -1300 1300 0 1300 0 0 1300 0 1300 -1300 0 -1300 0 0
-1300z m2165 1235 c83 -22 171 -72 230 -131 54 -54 117 -168 134 -244 7 -29
11 -342 11 -865 0 -895 1 -879 -58 -989 -35 -67 -135 -167 -197 -199 -118 -59
-84 -57 -990 -57 -714 0 -839 2 -890 15 -175 46 -317 196 -354 373 -7 36 -11
311 -11 865 0 896 -2 870 63 991 61 116 182 208 313 240 91 22 1664 23 1749 1z"/>
<path d="M457 2389 c-116 -28 -214 -118 -247 -228 -20 -65 -20 -88 -18 -891
l3 -825 34 -63 c40 -74 84 -115 161 -151 53 -25 63 -26 263 -29 l207 -3 0 895
0 896 180 0 180 0 2 -487 3 -487 125 140 c69 76 166 187 214 247 l89 107 221
0 221 0 -76 -77 c-41 -43 -150 -157 -241 -253 l-166 -175 53 -86 c30 -48 135
-226 234 -395 100 -170 187 -313 194 -317 7 -5 36 0 69 13 76 28 159 104 195
178 l28 57 0 845 0 845 -28 57 c-34 69 -118 149 -184 174 -45 18 -96 19 -863
21 -454 1 -832 -3 -853 -8z"/>
<path d="M1286 658 l-66 -73 0 -192 0 -193 220 0 c121 0 220 2 220 5 0 4 -234
405 -287 493 l-20 33 -67 -73z"/>
</g>
</svg>
